<?xml version="1.0" encoding="UTF-8" standalone="no"?>
<svg width="16px" height="16px" viewBox="0 0 16 16" version="1.1" xmlns="http://www.w3.org/2000/svg" xmlns:xlink="http://www.w3.org/1999/xlink">
    <defs></defs>
    <g id="Page-1" stroke="none" stroke-width="1" fill="none" fill-rule="evenodd">
        <g id="republish_small">
            <g id="Group-Copy-6" transform="translate(0.500000, 0.000000)">
                <path d="M5.17929412,3.59623529 L3.936,1.48329412 L6.08752941,0.217411765 L7.33082353,2.33035294 L5.17929412,3.59623529" id="Fill-1" fill="#AAAAAA"></path>
                <path d="M7.84282353,12.6390588 L7.78823529,12.672 L6.84705882,13.3138824 L7.78823529,13.776 C7.79670588,13.7750588 7.80423529,13.7694118 7.81270588,13.7694118 L12.7510588,10.7670588 L12.7510588,9.65458824 L7.84282353,12.6390588" id="Fill-2" fill="#FFFFFF"></path>
                <path d="M13.9774118,9.968 C13.8362353,10.0564706 13.7317647,10.1148235 13.7317647,10.1148235 L13.7392941,9.04752941 L14.3811765,8.66352941 C14.4912941,8.59670588 14.5684706,8.48470588 14.592,8.35764706 C14.6155294,8.22964706 14.5835294,8.09882353 14.5035294,7.99623529 L8.46023529,0.203294118 C8.32282353,0.0254117647 8.07717647,-0.0254117647 7.88047059,0.0847058824 C7.88047059,0.0847058824 1.51247059,3.60376471 1.22823529,3.76094118 C0.943058824,3.91717647 0.721882353,4.24282353 0.721882353,4.56376471 C0.721882353,4.88376471 0.720941176,6.20988235 0.720941176,6.20988235 C0.720941176,6.73788235 0.922352941,6.93176471 1.14447059,7.25176471 C2.19105882,8.76329412 6.05458824,14.2447059 6.24094118,14.4997647 C6.61552941,15.0145882 6.99011765,15.3251765 7.78258824,14.8536471 C8.36517647,14.5072941 14.2136471,10.9487059 14.2136471,10.9487059 C14.4781176,10.7849412 14.5778824,10.592 14.4658824,10.1957647 C14.3971765,9.95105882 14.2211765,9.82117647 13.9774118,9.968 L13.9774118,9.968 Z M12.7510588,9.76376471 L12.7510588,10.7670588 C12.7510588,10.7670588 8.50541176,13.3656471 8.12047059,13.5849412 C7.54729412,13.9115294 7.21035294,13.0334118 7.84282353,12.6390588 C8.34729412,12.3237647 12.7510588,9.65458824 12.7510588,9.65458824 L12.7510588,9.76376471 L12.7510588,9.76376471 Z" id="Fill-3" fill="#AAAAAA"></path>
                <path d="M6.80188235,11.0315294 C6.65317647,11.0315294 6.50823529,10.9628235 6.416,10.832 L2.43952941,5.17929412 C2.29082353,4.96752941 2.34070588,4.67388235 2.55341176,4.52423529 C2.76705882,4.37364706 3.05976471,4.42447059 3.20941176,4.63811765 L7.18682353,10.2908235 C7.33552941,10.5025882 7.28470588,10.7962353 7.07294118,10.9458824 C6.99011765,11.0042353 6.89505882,11.0315294 6.80188235,11.0315294" id="Fill-4" fill="#FFFFFF"></path>
                <path d="M11.8569412,14.6287059 L10.2258824,11.856 L12.3774118,10.5901176 L14.0084706,13.3628235 L12.5825882,13.3336471 L11.8569412,14.6287059" id="Fill-5" fill="#AAAAAA"></path>
            </g>
        </g>
    </g>
</svg>