<?xml version="1.0" encoding="UTF-8" standalone="no"?>
<svg width="18px" height="18px" viewBox="0 0 18 18" version="1.1" xmlns="http://www.w3.org/2000/svg" xmlns:xlink="http://www.w3.org/1999/xlink">
    <defs></defs>
    <g id="Page-1" stroke="none" stroke-width="1" fill="none" fill-rule="evenodd">
        <g id="views" fill="#AAAAAA">
            <path d="M18,9.01141055 C18,9.01141055 14.3764562,15.1578947 8.99955,15.1578947 C3.62246378,15.1578947 0,9.01141055 0,9.01141055 C0,9.01141055 3.62246378,2.84210526 8.99955,2.84210526 C14.3764562,2.84210526 18,9.01141055 18,9.01141055 L18,9.01141055 Z M13.4073459,9.01141055 C13.4073459,6.63005482 11.4225058,4.67964646 8.99955,4.67964646 C6.57659423,4.67964646 4.59175408,6.62987791 4.59175408,9.01141055 C4.59175408,11.3931201 6.57659423,13.3435285 8.99955,13.3435285 C11.4225058,13.3435285 13.4073459,11.393297 13.4073459,9.01141055 L13.4073459,9.01141055 Z M8.99955,7.0611791 C7.91524085,7.0611791 7.03792962,7.96818533 7.03792962,9.01141055 C7.03792962,10.0774569 7.91524085,10.9393516 8.99955,10.9393516 C10.0615394,10.9393516 10.9842102,10.0774569 10.9842102,9.01141055 C10.9842102,7.96818533 10.0615394,7.0611791 8.99955,7.0611791 L8.99955,7.0611791 Z" id="®"></path>
        </g>
    </g>
</svg>