<?xml version="1.0" encoding="UTF-8" standalone="no"?>
<svg width="42px" height="42px" viewBox="0 0 42 42" version="1.1" xmlns="http://www.w3.org/2000/svg" xmlns:xlink="http://www.w3.org/1999/xlink">
    <!-- Generator: Sketch 3.7.2 (28276) - http://www.bohemiancoding.com/sketch -->
    <title>bookmark.svg</title>
    <desc>Created with Sketch.</desc>
    <defs></defs>
    <g id="Page-1" stroke="none" stroke-width="1" fill="none" fill-rule="evenodd">
        <g id="bookmark.svg" fill="#DDDDDD">
            <path d="M12.589013,0 C9.63141912,0 9.00092148,0.687220612 9.00092148,3.6528139 L9.00092148,38.1134733 C9.00092148,40.4914748 8.92383642,41.4084961 10.1797412,41.451402 C11.0291313,41.451402 11.8356156,40.7096401 12.4922931,40.0449632 C12.4922931,40.0449632 20.4204191,30.719125 20.9461974,30.5235034 C20.9120182,30.4464184 20.9461974,30.4776887 21.0538256,30.5235034 C21.5796039,30.719125 29.50773,40.0449632 29.50773,40.0449632 C30.1614986,40.7096401 30.9708917,41.451402 31.8202819,41.451402 C33.0754594,41.4084961 32.9991016,40.4914748 32.9991016,38.1134733 L32.9991016,3.6528139 C32.9991016,0.687220612 32.3656951,0 29.41101,0 L12.589013,0 Z" id="Page-1"></path>
        </g>
    </g>
</svg>