<?xml version="1.0" encoding="UTF-8" standalone="no"?>
<svg width="45px" height="46px" viewBox="0 0 45 46" version="1.1" xmlns="http://www.w3.org/2000/svg" xmlns:xlink="http://www.w3.org/1999/xlink" xmlns:sketch="http://www.bohemiancoding.com/sketch/ns">
    <!-- Generator: Sketch 3.5.2 (25235) - http://www.bohemiancoding.com/sketch -->
    <title>Slice 1</title>
    <desc>Created with Sketch.</desc>
    <defs></defs>
    <g id="Page-1" stroke="none" stroke-width="1" fill="none" fill-rule="evenodd" sketch:type="MSPage">
        <g id="ScreenSymbolRGB_48" sketch:type="MSLayerGroup" fill="#FFFFFF">
            <path d="M44.5,36.4 L41.1,36.4 C41,37.9 40.2,39.4 38.2,39.4 C36.3,39.4 35.1,38 33.7,35.9 C38.7,32.4 42,26.9 42,20.2 C41.9,8.1 31.7,0 20.9,0 C10.3,0 0,8.1 0,20.3 C0,32.3 10.3,40.5 20.9,40.5 C22.8,40.5 24.5,40.2 26.2,39.6 C28.1,43.2 30.7,46 35.6,46 C43.7,46 44.8,38.6 44.5,36.4 L44.5,36.4 Z M30.4,30.5 C28.5,27.5 25.6,25.1 20.9,25.1 C18.1,25.1 16,25.9 14.5,27 L15.6,29.8 C16.1,29.7 16.5,29.6 17.1,29.6 C20.1,29.6 22.2,32.2 24.2,35.8 C22.7,36.1 21.9,36.1 21,36.1 C13.5,36.1 10.3,30.7 10.3,20.2 C10.3,9.7 13.5,4.2 21,4.2 C28.6,4.2 31.8,9.6 31.8,20.2 C31.7,24.5 31.3,28 30.4,30.5 L30.4,30.5 Z" id="Shape" sketch:type="MSShapeGroup"></path>
        </g>
    </g>
</svg>