<?xml version="1.0" encoding="UTF-8" standalone="no"?>
<svg width="18px" height="18px" viewBox="0 0 18 18" version="1.1" xmlns="http://www.w3.org/2000/svg" xmlns:xlink="http://www.w3.org/1999/xlink">
    <defs></defs>
    <g id="Page-1" stroke="none" stroke-width="1" fill="none" fill-rule="evenodd">
        <g id="ask">
            <path d="M13.7268951,4.28626087 L13.7449719,4.30513043 C13.757509,4.31365217 13.7586752,4.31821739 13.7665473,4.32552174 C14.9797289,5.5916087 15.67889,7.32730435 15.7051304,9.12021739 L17.6390486,9.10591304 C17.7311816,9.10591304 17.8166087,9.16404348 17.8483887,9.25078261 C17.8839591,9.33873913 17.866757,9.441 17.7994066,9.51130435 L14.6380205,12.8125652 C14.5490946,12.9053913 14.4044808,12.9041739 14.3167212,12.8137826 L11.1926547,9.55147826 L11.1859488,9.54447826 C11.097023,9.45165217 11.097023,9.30191304 11.1859488,9.2093913 C11.2451355,9.14730435 11.3293964,9.12721739 11.4057852,9.14730435 L13.3122967,9.13543478 C13.2927621,7.98347826 12.855422,6.9076087 12.052757,6.06943478 C10.4022353,4.36691304 7.72367263,4.37543478 6.05624041,6.11478261 C5.54601023,5.58217391 5.50956522,5.49513043 4.38764194,4.32430435 C6.95132992,1.64573913 11.1369668,1.629 13.7268951,4.28626087" id="Fill-1" fill="#AAAAAA"></path>
            <g id="Fill-2" transform="translate(-1.000000, 4.333333)" fill="#AAAAAA">
                <path d="M5.2089156,9.67044928 L5.19200512,9.6527971 C5.17946803,9.64549275 5.17830179,9.63971014 5.17130435,9.6324058 C3.95724808,8.36510145 3.25808696,6.63184058 3.23184655,4.83892754 L1.29792839,4.85323188 C1.2057954,4.85323188 1.12036829,4.79388406 1.08829668,4.70836232 C1.0530179,4.6204058 1.07138619,4.51692754 1.13727877,4.44905797 L4.30012276,1.1477971 C4.38904859,1.05497101 4.53249616,1.05618841 4.62142199,1.1477971 L7.75219437,4.41588406 C7.8411202,4.5084058 7.8411202,4.65844928 7.75219437,4.75097101 C7.69184143,4.81397101 7.60758056,4.83436232 7.5335243,4.81184058 L5.62701279,4.82584058 C5.64625575,5.97810145 6.08359591,7.05275362 6.88655243,7.89092754 C8.53561637,9.59436232 11.2156368,9.58492754 12.8819028,7.8467971 C13.3807621,8.36753623 14.001202,9.06418841 14.5502097,9.63727536 C11.9844808,12.3097536 7.79767775,12.3264928 5.2089156,9.67044928"></path>
            </g>
        </g>
    </g>
</svg>