<?xml version="1.0" encoding="UTF-8" standalone="no"?>
<svg width="90px" height="80px" viewBox="0 0 90 80" version="1.1" xmlns="http://www.w3.org/2000/svg" xmlns:xlink="http://www.w3.org/1999/xlink" xmlns:sketch="http://www.bohemiancoding.com/sketch/ns">
    <!-- Generator: Sketch 3.5.1 (25234) - http://www.bohemiancoding.com/sketch -->
    <title>Shape</title>
    <desc>Created with Sketch.</desc>
    <defs></defs>
    <g id="Page-1" stroke="none" stroke-width="1" fill="none" fill-rule="evenodd" sketch:type="MSPage">
        <path d="M76.245,28.696 C73.767,27.897 71.045,27.207 68.142,26.627 C69.088,23.832 69.867,21.128 70.412,18.59 C72.398,9.348 71.391,3.274 67.501,1.029 C66.527,0.465 65.406,0.18 64.17,0.18 C62.342,0.18 60.264,0.825 58.019,2.03 C57.209,1.401 56.203,1.011 55.097,1.011 C52.454,1.011 50.311,3.152 50.311,5.796 C50.311,6.386 50.432,6.945 50.628,7.468 C48.786,9.145 46.9,11.081 45,13.245 C37.858,5.11 30.889,0.182 25.83,0.182 C24.595,0.182 23.474,0.466 22.499,1.03 C18.61,3.276 17.603,9.35 19.588,18.591 C20.133,21.129 20.912,23.833 21.858,26.628 C18.955,27.207 16.234,27.897 13.757,28.696 C4.756,31.6 0,35.507 0,40 C0,43.084 2.242,45.893 6.558,48.289 C6.467,48.658 6.405,49.038 6.405,49.435 C6.405,52.077 8.549,54.22 11.194,54.22 C12.977,54.22 14.514,53.233 15.337,51.788 C17.375,52.385 19.56,52.912 21.858,53.371 C20.912,56.166 20.133,58.87 19.588,61.407 C17.604,70.652 18.611,76.724 22.501,78.971 C23.476,79.532 24.595,79.818 25.83,79.818 C30.89,79.818 37.858,74.89 45.001,66.754 C52.143,74.891 59.111,79.82 64.17,79.82 C65.406,79.82 66.525,79.533 67.499,78.973 C70.462,77.262 71.748,73.327 71.319,67.469 C72.98,66.717 74.14,65.055 74.14,63.115 C74.14,60.578 72.163,58.525 69.669,58.359 C69.239,56.745 68.718,55.075 68.142,53.373 C71.046,52.793 73.767,52.103 76.245,51.304 C85.244,48.401 90,44.493 90,40 C90,35.507 85.244,31.6 76.245,28.696 L76.245,28.696 Z M52.406,9.755 C53.173,10.278 54.099,10.586 55.098,10.586 C57.743,10.586 59.886,8.442 59.886,5.798 C59.886,5.317 59.794,4.863 59.662,4.425 C61.4,3.521 62.928,3.055 64.171,3.055 C64.906,3.055 65.525,3.205 66.066,3.517 C68.655,5.014 69.231,10.424 67.605,17.991 C67.057,20.544 66.261,23.276 65.288,26.106 C61.665,25.499 57.801,25.056 53.782,24.795 C51.52,21.401 49.202,18.27 46.885,15.46 C48.786,13.275 50.639,11.372 52.406,9.755 L52.406,9.755 Z M55.926,46.309 C54.686,48.457 53.432,50.492 52.176,52.425 C49.863,52.55 47.47,52.618 44.999,52.618 C42.528,52.618 40.136,52.55 37.824,52.425 C36.568,50.492 35.314,48.458 34.074,46.309 C32.856,44.2 31.728,42.088 30.661,39.987 C31.707,37.927 32.842,35.826 34.074,33.691 C35.314,31.543 36.568,29.508 37.824,27.575 C40.136,27.45 42.528,27.382 44.999,27.382 C47.47,27.382 49.864,27.45 52.176,27.575 C53.432,29.508 54.686,31.542 55.926,33.691 C57.158,35.826 58.293,37.927 59.339,39.987 C58.273,42.088 57.144,44.2 55.926,46.309 L55.926,46.309 Z M60.914,43.2 C62.213,45.951 63.339,48.608 64.298,51.143 C61.626,51.579 58.765,51.932 55.737,52.183 C56.642,50.742 57.537,49.264 58.414,47.745 C59.288,46.23 60.114,44.714 60.914,43.2 L60.914,43.2 Z M50.19,55.388 C48.448,57.907 46.709,60.22 45,62.312 C43.291,60.22 41.552,57.908 39.81,55.388 C41.521,55.453 43.251,55.489 44.999,55.489 C46.748,55.489 48.479,55.453 50.19,55.388 L50.19,55.388 Z M34.264,52.182 C31.236,51.931 28.374,51.579 25.702,51.142 C26.661,48.607 27.788,45.95 29.087,43.199 C29.887,44.714 30.713,46.23 31.588,47.744 C32.464,49.263 33.359,50.741 34.264,52.182 L34.264,52.182 Z M29.094,36.786 C27.822,34.093 26.684,31.439 25.704,28.857 C28.376,28.421 31.236,28.068 34.263,27.818 C33.358,29.259 32.463,30.737 31.586,32.256 C30.716,33.765 29.892,35.276 29.094,36.786 L29.094,36.786 Z M39.81,24.612 C41.552,22.093 43.291,19.78 45,17.688 C46.709,19.78 48.448,22.093 50.19,24.612 C48.478,24.547 46.747,24.511 44.998,24.511 C43.251,24.511 41.521,24.548 39.81,24.612 L39.81,24.612 Z M58.414,32.255 C57.537,30.736 56.643,29.259 55.737,27.817 C58.764,28.068 61.624,28.42 64.295,28.856 C63.315,31.438 62.178,34.092 60.906,36.785 C60.109,35.276 59.286,33.765 58.414,32.255 L58.414,32.255 Z M22.397,17.99 C20.771,10.423 21.347,5.013 23.936,3.516 C24.476,3.204 25.097,3.054 25.83,3.054 C29.621,3.054 36.025,7.323 43.117,15.458 C40.801,18.268 38.483,21.399 36.221,24.793 C32.201,25.054 28.337,25.497 24.714,26.104 C23.742,23.275 22.945,20.543 22.397,17.99 L22.397,17.99 Z M15.932,48.951 C15.687,46.536 13.672,44.645 11.194,44.645 C10.003,44.645 8.928,45.096 8.09,45.815 C4.732,43.974 2.872,41.951 2.872,40 C2.872,36.045 10.475,31.793 22.825,29.373 C24.111,32.817 25.656,36.385 27.441,40 C25.656,43.615 24.111,47.182 22.825,50.627 C20.326,50.137 18.018,49.573 15.932,48.951 L15.932,48.951 Z M25.83,76.946 C25.097,76.946 24.476,76.795 23.936,76.483 C20.512,74.506 20.631,65.798 24.71,53.894 C28.335,54.502 32.2,54.945 36.222,55.207 C38.484,58.601 40.802,61.732 43.118,64.542 C36.024,72.677 29.62,76.946 25.83,76.946 L25.83,76.946 Z M66.867,59.038 C65.491,59.879 64.565,61.382 64.565,63.114 C64.565,65.443 66.229,67.38 68.433,67.808 C68.74,72.317 67.931,75.405 66.063,76.483 C65.523,76.795 64.905,76.946 64.17,76.946 C60.381,76.946 53.977,72.677 46.884,64.542 C49.201,61.732 51.518,58.6 53.781,55.207 C57.802,54.945 61.667,54.502 65.291,53.894 C65.904,55.684 66.431,57.405 66.867,59.038 L66.867,59.038 Z M67.174,50.627 C65.888,47.183 64.344,43.615 62.559,40 C64.344,36.385 65.888,32.817 67.174,29.373 C79.525,31.793 87.129,36.045 87.129,40 C87.129,43.955 79.525,48.207 67.174,50.627 Z M45,46.703 C48.7019647,46.703 51.703,43.7019647 51.703,40 C51.703,36.2980353 48.7019647,33.297 45,33.297 C41.2980353,33.297 38.297,36.2980353 38.297,40 C38.297,43.7019647 41.2980353,46.703 45,46.703 Z" id="Shape" fill="#DDDDDD" sketch:type="MSShapeGroup"></path>
    </g>
</svg>