<?xml version="1.0" encoding="UTF-8" standalone="no"?>
<svg width="15px" height="15px" viewBox="0 0 15 15" version="1.1" xmlns="http://www.w3.org/2000/svg" xmlns:xlink="http://www.w3.org/1999/xlink" xmlns:sketch="http://www.bohemiancoding.com/sketch/ns">
    <!-- Generator: Sketch 3.3.2 (12043) - http://www.bohemiancoding.com/sketch -->
    <title>Shape Copy</title>
    <desc>Created with Sketch.</desc>
    <defs></defs>
    <g id="Page-1" stroke="none" stroke-width="1" fill="none" fill-rule="evenodd" sketch:type="MSPage">
        <path d="M15,5.8998 C15,5.4 14.6046,4.99545 14.10975,4.97445 C14.11035,4.97265 14.11035,4.97085 14.1111,4.9692 L9.81915,4.9692 L8.37945,0.65115 C8.37885,0.65115 8.3781,0.6513 8.37735,0.6513 C8.2587,0.27495 7.9107,0 7.49505,0 C7.05435,0 6.68745,0.3072 6.5916,0.71835 C6.59055,0.7182 6.58935,0.71835 6.58845,0.71805 L5.17095,4.9692 L0.9504,4.9692 C0.9432,4.96905 0.9366,4.9671 0.92955,4.9671 C0.41595,4.96695 0,5.3832 0,5.8965 C0,6.1791 0.12855,6.429 0.32775,6.59955 C0.3267,6.60105 0.3261,6.6027 0.3249,6.6042 L3.936,9.38025 L2.59185,13.6827 C2.53725,13.80105 2.50455,13.93155 2.50455,14.07075 C2.50455,14.58405 2.9208,15 3.43425,15 C3.645,15 3.8373,14.9274 3.9933,14.8092 C3.99495,14.8107 3.99705,14.81175 3.9987,14.8131 L7.50405,12.126 L10.88445,14.72355 C11.0532,14.8941 11.28675,15 11.5455,15 C12.0591,15 12.4752,14.58405 12.4752,14.07075 C12.4752,13.95855 12.4521,13.85235 12.41565,13.7526 C12.41805,13.7523 12.42,13.7511 12.4224,13.7508 L11.06085,9.3984 L14.61855,6.6486 C14.61825,6.64845 14.6178,6.64815 14.6175,6.64785 C14.8482,6.4788 15,6.2079 15,5.8998 L15,5.8998 Z" id="Shape-Copy" fill="#FFFFFF" sketch:type="MSShapeGroup"></path>
    </g>
</svg>