<?xml version="1.0" encoding="UTF-8" standalone="no"?>
<svg width="18px" height="18px" viewBox="0 0 18 18" version="1.1" xmlns="http://www.w3.org/2000/svg" xmlns:xlink="http://www.w3.org/1999/xlink">
    <defs></defs>
    <g id="Page-1" stroke="none" stroke-width="1" fill="none" fill-rule="evenodd">
        <g id="follow" fill="#AAAAAA">
            <path d="M14.7677143,14.7355714 L15.048,11.6508857 C15.0490286,11.6156571 15.0518571,11.5814571 15.0518571,11.5462286 C15.0518571,11.3405143 15.0269143,11.1384 14.9796,10.9486286 L14.9796,10.9455429 C14.9716286,10.9105714 14.9616,10.8753429 14.9515714,10.8421714 C14.9464286,10.8100286 14.9425714,10.7778857 14.9425714,10.7436857 C14.9425714,10.4202 15.2066571,10.1571429 15.5311714,10.1571429 L16.8048,10.1571429 C17.4646286,10.1571429 18,10.6894286 18,11.3464286 L17.6927143,14.7355714 L14.7677143,14.7355714 Z" id="Path-Copy-6"></path>
            <path d="M13.6478571,9.24711429 C13.4197714,9.24711429 13.1988857,9.21908571 12.9867429,9.16482857 C12.9466286,9.1548 12.9075429,9.14271429 12.8671714,9.13165714 C12.6272571,9.05631429 12.4534286,8.83414286 12.4534286,8.57005714 C12.4534286,8.47362857 12.4776,8.38028571 12.5218286,8.29877143 C12.5318571,8.28077143 12.5439429,8.26071429 12.555,8.24374286 C12.555,8.24168571 12.5578286,8.24065714 12.5578286,8.2386 C12.9186,7.62377143 13.1274,6.90762857 13.1274,6.14442857 C13.1274,5.67925714 13.0489714,5.22925714 12.9075429,4.80934286 L12.9065143,4.80625714 C12.8985429,4.78517143 12.8923714,4.76614286 12.8844,4.74402857 C12.8692286,4.69388571 12.8602286,4.63757143 12.8602286,4.58125714 C12.8602286,4.28914286 13.0762286,4.04588571 13.3593429,4.00268571 C13.3655143,4.00088571 13.3704,4.00088571 13.3776,3.99985714 C13.3945714,3.9978 13.4097429,3.99677143 13.4267143,3.99574286 C13.4989714,3.9888 13.5735429,3.98571429 13.6478571,3.98571429 C15.1081714,3.98571429 16.2925714,5.16394286 16.2925714,6.61628571 C16.2925714,8.06888571 15.1081714,9.24711429 13.6478571,9.24711429 L13.6478571,9.24711429 Z" id="Path-Copy"></path>
            <path d="M13.8294,11.5130571 L13.5401143,14.7024 L4.51414286,14.7024 L4.22485714,11.5130571 C4.22485714,10.7647714 4.83454286,10.1571429 5.58694286,10.1571429 L12.4683429,10.1571429 C13.2207429,10.1571429 13.8294,10.7647714 13.8294,11.5130571 L13.8294,11.5130571 Z" id="Path-Copy-2"></path>
            <path d="M9.03728571,9.21008571 C8.04574286,9.21008571 7.1658,8.73488571 6.61654286,7.99662857 C6.24471429,7.50034286 6.02485714,6.88268571 6.02485714,6.21282857 C6.02485714,5.76077143 6.12514286,5.33185714 6.30694286,4.94511429 C6.78625714,3.92245714 7.82974286,3.21428571 9.03805714,3.21428571 C10.2476571,3.21428571 11.2890857,3.92142857 11.7694286,4.94511429 C11.9512286,5.3298 12.0525429,5.76077143 12.0525429,6.21282857 C12.0525429,6.88268571 11.8326857,7.50034286 11.4590571,7.99868571 C10.9085143,8.73385714 10.0285714,9.21008571 9.03728571,9.21008571 L9.03728571,9.21008571 Z" id="Path-Copy-3"></path>
            <path d="M5.08371429,9.12754286 C5.08268571,9.12754286 5.08062857,9.12857143 5.0778,9.13062857 C5.02945714,9.14451429 4.98034286,9.15762857 4.932,9.16971429 C4.72911429,9.21882857 4.5162,9.24608571 4.2984,9.24608571 C2.83782857,9.24608571 1.65342857,8.06785714 1.65342857,6.61628571 C1.65342857,5.16291429 2.83782857,3.98571429 4.2984,3.98571429 C4.37348571,3.98571429 4.44805714,3.9888 4.51928571,3.99574286 C4.53625714,3.99677143 4.55245714,3.9978 4.56737143,3.99985714 C4.57457143,4.00088571 4.58048571,4.00088571 4.58665714,4.00268571 C4.86977143,4.04588571 5.08577143,4.28811429 5.08577143,4.58125714 C5.08577143,4.63757143 5.07677143,4.69388571 5.0616,4.74402857 C5.05465714,4.76511429 5.04771429,4.78517143 5.03948571,4.80625714 L5.03948571,4.80934286 C4.89702857,5.22925714 4.81962857,5.67822857 4.81962857,6.14417143 C4.81962857,6.90762857 5.0274,7.62377143 5.38817143,8.2386 C5.3892,8.24065714 5.39022857,8.24168571 5.39125714,8.24374286 C5.40128571,8.26174286 5.41234286,8.2818 5.42417143,8.29877143 C5.46737143,8.38028571 5.4936,8.47362857 5.4936,8.57005714 C5.4936,8.83028571 5.32182857,9.05117143 5.08371429,9.12754286 L5.08371429,9.12754286 Z" id="Path-Copy-4"></path>
            <path d="M3.16825714,10.7436857 C3.16825714,10.7748 3.16517143,10.8069429 3.16002857,10.8372857 C3.15,10.8753429 3.13791429,10.9134 3.12994286,10.9527429 C3.08288571,11.1435429 3.05768571,11.3412857 3.05768571,11.5472571 C3.05768571,11.5814571 3.05871429,11.6166857 3.06257143,11.6516571 L3.34182857,14.7366 L0.418885714,14.7366 L0.110571429,11.3464286 C0.110571429,10.6884 0.644914286,10.1571429 1.30474286,10.1571429 L2.57862857,10.1571429 C2.90494286,10.1571429 3.16825714,10.4194286 3.16825714,10.7436857 L3.16825714,10.7436857 Z" id="Path-Copy-5"></path>
        </g>
    </g>
</svg>