<?xml version="1.0" encoding="UTF-8" standalone="no"?>
<svg width="110px" height="220px" viewBox="0 0 110 220" version="1.1" xmlns="http://www.w3.org/2000/svg" xmlns:xlink="http://www.w3.org/1999/xlink">
    <!-- Generator: Sketch 3.6.1 (26313) - http://www.bohemiancoding.com/sketch -->
    <title>Artboard 3</title>
    <desc>Created with Sketch.</desc>
    <defs></defs>
    <g id="Page-1" stroke="none" stroke-width="1" fill="none" fill-rule="evenodd">
        <g id="Artboard-3">
            <g id="follow" fill="#2b6dad">
                <g id="Group" transform="translate(2.000000, 14.000000)">
                    <path d="M45.1021155,51.3027053 C43.9134991,46.421707 48.4329205,42.7026014 50.4399284,38.8549794 C52.551671,34.8027804 54.3175456,29.3172308 54.6646314,24.7326069 C55.9007436,8.27858079 46.5294294,-1.35227663 33.1002569,0.313190273 C23.3331431,1.52098162 17.5008853,9.36441276 16.8688239,19.4608141 C16.2258019,29.7473671 19.7697298,37.3495023 23.537741,42.9229151 C25.1842669,45.3607915 26.9160419,46.9292154 26.649334,49.8641091 C26.3400014,53.3366731 22.8910655,54.3044799 20.4273659,55.370641 C17.5008853,56.6361335 14.3564105,58.5573217 12.8682044,59.4385767 C7.74838562,62.48625 2.12559706,66.1542113 0.860256512,71.1689715 C-1.93713256,82.2895694 9.07218357,84.3275307 16.8688248,85.8789066 C23.5669701,87.2165257 29.4657158,87.2072833 35.6779411,87.2072833 C46.9052506,87.2072833 67.1901632,88.1659136 70.444244,79.0727266 C71.3673702,76.4905972 70.9715707,72.3833198 70.444244,70.6929365 C68.4031364,64.1399143 60.2496667,60.0378825 54.4405479,57.2865836 C52.1619607,56.2112428 45.858397,54.3923431 45.1021155,51.3027053 L45.1021155,51.3027053 Z" id="Fill-1"></path>
                    <path d="M89.4582999,33.8035398 L89.4582999,23.6811757 C89.4582999,22.5521327 88.5451799,21.6286068 87.4057311,21.6286068 L80.7511416,21.6286068 C79.6116928,21.6286068 78.6985728,22.5443283 78.6985728,23.6811757 L78.6985728,33.8139457 L68.5658028,33.8139457 C67.4367598,33.8139457 66.5236399,34.7270657 66.5236399,35.8665145 L66.5236399,42.521104 C66.5236399,43.6605528 67.4367598,44.5736728 68.5658028,44.5736728 L78.6985728,44.5736728 L78.6985728,54.7064429 C78.6985728,55.8328843 79.6116928,56.7486058 80.7511416,56.7486058 L87.4057311,56.7486058 C88.534774,56.7486058 89.4582999,55.8328843 89.4582999,54.7064429 L89.4582999,44.5736728 L99.59107,44.5736728 C100.717511,44.5736728 101.643639,43.6605528 101.643639,42.521104 L101.643639,35.8665145 C101.643639,34.7270657 100.717511,33.8035398 99.59107,33.8035398 L89.4582999,33.8035398 L89.4582999,33.8035398 Z" id="Fill-2"></path>
                </g>
            </g>
            <g id="unfollow" transform="translate(0.000000, 110.000000)" fill="#999999">
                <g id="Group" transform="translate(2.000000, 14.000000)">
                    <path d="M50.4399284,38.8549794 C52.551671,34.8027804 54.3175456,29.3172308 54.6646314,24.7326069 C55.9007436,8.27858079 46.5294294,-1.35227663 33.1002569,0.313190273 C23.3331431,1.52098162 17.5008853,9.36441276 16.8688239,19.4608141 C16.2258019,29.7473671 19.7697298,37.3495023 23.537741,42.9229151 C25.1842669,45.3607915 26.9160419,46.9292154 26.649334,49.8641091 C26.3400014,53.3366731 22.8910655,54.3044799 20.4273659,55.370641 C17.5008853,56.6361335 14.3564105,58.5573217 12.8682044,59.4385767 C7.74838562,62.48625 2.12559706,66.1542113 0.860256512,71.1689715 C-1.93713256,82.2895694 9.07218357,84.3275307 16.8688248,85.8789066 C23.5669701,87.2165257 29.4657158,87.2072833 35.6779411,87.2072833 C46.9052506,87.2072833 67.1901632,88.1659136 70.444244,79.0727266 C71.3673702,76.4905972 70.9715707,72.3833198 70.444244,70.6929365 C68.4031364,64.1399143 60.2496667,60.0378825 54.4405479,57.2865836 C52.1619607,56.2112428 45.858397,54.3923431 45.1021155,51.3027053 C43.9134991,46.421707 48.4329205,42.7026014 50.4399284,38.8549794 Z" id="Fill-1"></path>
                    <rect id="Rectangle-1" transform="translate(89.580127, 39.155445) rotate(-50.000000) translate(-89.580127, -39.155445) " x="69.5801267" y="33.6554447" width="40" height="11" rx="3"></rect>
                    <rect id="Rectangle-1" transform="translate(74.225663, 44.441362) rotate(42.000000) translate(-74.225663, -44.441362) " x="66.7256627" y="38.6913618" width="15" height="11.5" rx="3"></rect>
                </g>
            </g>
        </g>
    </g>
</svg>